<svg xmlns="http://www.w3.org/2000/svg" viewBox="0 0 1672 941" role="img" aria-labelledby="title desc"><title id="title">Adjustable Wrench / モンキーレンチ</title><desc id="desc">Technical glossary illustration of an adjustable wrench for nuts and fittings.</desc><defs><filter id="s" x="-20%" y="-20%" width="140%" height="160%"><feDropShadow dx="18" dy="24" stdDeviation="18" flood-color="#000" flood-opacity=".15"/></filter></defs><rect x="20" y="18" width="1632" height="904" rx="28" fill="#fff" stroke="#6f879f" stroke-width="4"/><text x="836" y="106" text-anchor="middle" font-family="Arial,Helvetica,sans-serif" font-size="62" font-weight="800" fill="#26323d">Adjustable Wrench / モンキーレンチ</text><path d="M66 158h698M908 158h698" stroke="#6f879f" stroke-width="4"/><g filter="url(#s)"><path d="M520 740L1080 268c68-58 170-48 226 22l-126 108c-18-22-52-24-74-6L622 820z" fill="#e8edf1" stroke="#26323d" stroke-width="22" stroke-linejoin="round"/><path d="M1078 270l-82-98 156-52 154 180" fill="#e8edf1" stroke="#26323d" stroke-width="22" stroke-linejoin="round"/><path d="M1018 358l138-116" stroke="#6f879f" stroke-width="20" stroke-linecap="round"/><rect x="430" y="738" width="230" height="76" rx="28" fill="#26323d" transform="rotate(-40 545 776)"/></g><rect x="936" y="704" width="470" height="86" rx="18" fill="#f7f7f4" stroke="#d4d7dd" stroke-width="3"/><text x="964" y="758" font-family="Arial,Helvetica,sans-serif" font-size="34" font-weight="700" fill="#26323d">Adjustable jaw</text></svg>