<svg xmlns="http://www.w3.org/2000/svg" viewBox="0 0 1672 941" role="img" aria-labelledby="title desc"><title id="title">Cable Tray / ケーブルトレイ</title><desc id="desc">A technical illustration of a cable tray carrying multiple cables.</desc><defs><filter id="shadow" x="-20%" y="-20%" width="140%" height="160%"><feDropShadow dx="18" dy="24" stdDeviation="18" flood-color="#000" flood-opacity="0.15"/></filter></defs><rect x="20" y="18" width="1632" height="904" rx="28" fill="#fff" stroke="#6f879f" stroke-width="4"/><text x="836" y="106" text-anchor="middle" font-family="Arial, Helvetica, sans-serif" font-size="66" font-weight="800" fill="#26323d">Cable Tray / ケーブルトレイ</text><path d="M66 158h698M908 158h698" stroke="#6f879f" stroke-width="4"/><g filter="url(#shadow)"><polygon points="300,526 1120,326 1410,452 580,690" fill="#e7eaec" stroke="#26323d" stroke-width="5"/><polygon points="300,526 580,690 580,742 300,580" fill="#c8d0d7" stroke="#26323d" stroke-width="5"/><polygon points="580,690 1410,452 1410,502 580,742" fill="#d6dde2" stroke="#26323d" stroke-width="5"/><path d="M438 556l820-202M508 598l820-202M578 640l820-202" stroke="#6f879f" stroke-width="12" stroke-linecap="round"/><path d="M376 526l250 145M494 496l250 145M612 466l250 145M730 438l250 145M848 408l250 145M966 380l250 145" stroke="#9ca8b2" stroke-width="8" opacity=".8"/><path d="M410 482c238-58 474-116 708-172" stroke="#26323d" stroke-width="18" stroke-linecap="round"/><path d="M470 520c238-58 474-116 708-172" stroke="#4f6678" stroke-width="14" stroke-linecap="round"/></g><rect x="982" y="680" width="394" height="86" rx="18" fill="#f7f7f4" stroke="#d4d7dd" stroke-width="3"/><text x="1010" y="734" font-family="Arial, Helvetica, sans-serif" font-size="34" font-weight="700" fill="#26323d">Routes cable runs</text></svg>