<svg xmlns="http://www.w3.org/2000/svg" viewBox="0 0 1672 941" role="img" aria-labelledby="title desc"><title id="title">Cable Reel / コードリール</title><desc id="desc">Technical glossary illustration of a cable reel used for temporary power distribution.</desc><defs><filter id="s" x="-20%" y="-20%" width="140%" height="160%"><feDropShadow dx="18" dy="24" stdDeviation="18" flood-color="#000" flood-opacity=".15"/></filter></defs><rect x="20" y="18" width="1632" height="904" rx="28" fill="#fff" stroke="#6f879f" stroke-width="4"/><text x="836" y="106" text-anchor="middle" font-family="Arial,Helvetica,sans-serif" font-size="66" font-weight="800" fill="#26323d">Cable Reel / コードリール</text><path d="M66 158h698M908 158h698" stroke="#6f879f" stroke-width="4"/><g filter="url(#s)"><circle cx="836" cy="500" r="250" fill="#e8edf1" stroke="#26323d" stroke-width="22"/><circle cx="836" cy="500" r="132" fill="#fff" stroke="#6f879f" stroke-width="18"/><circle cx="836" cy="500" r="42" fill="#26323d"/><path d="M650 334c112-72 270-72 382 0M650 666c112 72 270 72 382 0" fill="none" stroke="#26323d" stroke-width="22" stroke-linecap="round"/><rect x="590" y="742" width="492" height="70" rx="24" fill="#26323d"/><path d="M1084 500h220c80 0 120 46 120 102" fill="none" stroke="#26323d" stroke-width="30" stroke-linecap="round"/></g><rect x="1010" y="720" width="420" height="86" rx="18" fill="#f7f7f4" stroke="#d4d7dd" stroke-width="3"/><text x="1038" y="774" font-family="Arial,Helvetica,sans-serif" font-size="34" font-weight="700" fill="#26323d">Power distribution</text></svg>