<svg xmlns="http://www.w3.org/2000/svg" viewBox="0 0 1672 941" role="img" aria-labelledby="title desc"><title id="title">Concrete Anchor / コンクリートアンカー</title><desc id="desc">A technical illustration of a metal fixing embedded in a concrete base.</desc><defs><filter id="shadow" x="-20%" y="-20%" width="140%" height="160%"><feDropShadow dx="18" dy="24" stdDeviation="18" flood-color="#000" flood-opacity="0.15"/></filter><pattern id="base" width="44" height="34" patternUnits="userSpaceOnUse"><rect width="44" height="34" fill="#d9d7cf"/><circle cx="8" cy="8" r="2" fill="#97948b" opacity=".55"/><circle cx="28" cy="19" r="2.5" fill="#aaa69d" opacity=".5"/><path d="M12 27l13-4" stroke="#8f8b83" stroke-width="2" opacity=".35"/></pattern></defs><rect x="20" y="18" width="1632" height="904" rx="28" fill="#fff" stroke="#6f879f" stroke-width="4"/><text x="836" y="106" text-anchor="middle" font-family="Arial, Helvetica, sans-serif" font-size="66" font-weight="800" fill="#26323d">Concrete Anchor / コンクリートアンカー</text><path d="M66 158h698M908 158h698" stroke="#6f879f" stroke-width="4"/><g filter="url(#shadow)"><rect x="356" y="596" width="960" height="156" rx="16" fill="url(#base)" stroke="#20242a" stroke-width="4"/><path d="M836 248v354" stroke="#26323d" stroke-width="54" stroke-linecap="round"/><path d="M740 248h192M758 316h156M766 384h140M774 452h124" stroke="#6f879f" stroke-width="16" stroke-linecap="round"/><rect x="720" y="552" width="232" height="64" rx="18" fill="#26323d"/><path d="M650 620h372" stroke="#26323d" stroke-width="42" stroke-linecap="round"/></g><rect x="1014" y="310" width="370" height="96" rx="18" fill="#f7f7f4" stroke="#d4d7dd" stroke-width="3"/><text x="1042" y="369" font-family="Arial, Helvetica, sans-serif" font-size="34" font-weight="700" fill="#26323d">Concrete fixing point</text></svg>