<svg xmlns="http://www.w3.org/2000/svg" viewBox="0 0 1672 941" role="img" aria-labelledby="title desc"><title id="title">Drill Driver / ドリルドライバー</title><desc id="desc">A technical illustration of a drill driver used for drilling and screw driving.</desc><defs><filter id="s" x="-20%" y="-20%" width="140%" height="160%"><feDropShadow dx="18" dy="24" stdDeviation="18" flood-color="#000" flood-opacity=".15"/></filter><linearGradient id="g" x1="0" y1="0" x2="1" y2="1"><stop offset="0" stop-color="#f5f7f8"/><stop offset="1" stop-color="#9aa9b5"/></linearGradient></defs><rect x="20" y="18" width="1632" height="904" rx="28" fill="#fff" stroke="#6f879f" stroke-width="4"/><text x="836" y="106" text-anchor="middle" font-family="Arial,Helvetica,sans-serif" font-size="66" font-weight="800" fill="#26323d">Drill Driver / ドリルドライバー</text><path d="M66 158h698M908 158h698" stroke="#6f879f" stroke-width="4"/><g filter="url(#s)"><rect x="420" y="334" width="520" height="178" rx="58" fill="url(#g)" stroke="#26323d" stroke-width="20"/><path d="M940 424h220" stroke="#26323d" stroke-width="46" stroke-linecap="round"/><path d="M1160 424l210 0" stroke="#6f879f" stroke-width="24" stroke-linecap="round"/><path d="M1370 424l-78-38M1370 424l-78 38" stroke="#6f879f" stroke-width="18" stroke-linecap="round"/><path d="M590 506l-92 258" stroke="#26323d" stroke-width="56" stroke-linecap="round"/><rect x="470" y="734" width="220" height="72" rx="22" fill="#26323d"/><circle cx="548" cy="420" r="42" fill="#6f879f"/><path d="M730 512l92 184" stroke="#26323d" stroke-width="44" stroke-linecap="round"/></g><rect x="956" y="700" width="470" height="86" rx="18" fill="#f7f7f4" stroke="#d4d7dd" stroke-width="3"/><text x="984" y="754" font-family="Arial,Helvetica,sans-serif" font-size="34" font-weight="700" fill="#26323d">Drilling and screw driving</text></svg>