<svg xmlns="http://www.w3.org/2000/svg" viewBox="0 0 1672 941" role="img" aria-labelledby="title desc"><title id="title">Duct / ダクト</title><desc id="desc">A technical illustration of rectangular ductwork used for ventilation.</desc><defs><filter id="s" x="-20%" y="-20%" width="140%" height="160%"><feDropShadow dx="18" dy="24" stdDeviation="18" flood-color="#000" flood-opacity=".15"/></filter></defs><rect x="20" y="18" width="1632" height="904" rx="28" fill="#fff" stroke="#6f879f" stroke-width="4"/><text x="836" y="106" text-anchor="middle" font-family="Arial,Helvetica,sans-serif" font-size="66" font-weight="800" fill="#26323d">Duct / ダクト</text><path d="M66 158h698M908 158h698" stroke="#6f879f" stroke-width="4"/><g filter="url(#s)"><polygon points="318,390 1068,248 1400,384 642,558" fill="#edf0f2" stroke="#26323d" stroke-width="5"/><polygon points="318,390 642,558 642,720 318,544" fill="#cbd4dc" stroke="#26323d" stroke-width="5"/><polygon points="642,558 1400,384 1400,546 642,720" fill="#d9e0e5" stroke="#26323d" stroke-width="5"/><path d="M392 432l742-154M478 476l742-154M566 520l742-154" stroke="#8fa7b4" stroke-width="12" stroke-linecap="round"/><rect x="1178" y="344" width="176" height="154" fill="#f7f7f4" stroke="#26323d" stroke-width="5"/><path d="M1214 374h104M1214 410h104M1214 446h104" stroke="#6f879f" stroke-width="10" stroke-linecap="round"/></g><rect x="1004" y="704" width="430" height="86" rx="18" fill="#f7f7f4" stroke="#d4d7dd" stroke-width="3"/><text x="1032" y="758" font-family="Arial,Helvetica,sans-serif" font-size="34" font-weight="700" fill="#26323d">Routes air flow</text></svg>