<svg xmlns="http://www.w3.org/2000/svg" viewBox="0 0 1672 941" role="img" aria-labelledby="title desc"><title id="title">Extension Cord / 延長コード</title><desc id="desc">Technical glossary illustration of an extension cord used to supply temporary power.</desc><defs><filter id="s" x="-20%" y="-20%" width="140%" height="160%"><feDropShadow dx="18" dy="24" stdDeviation="18" flood-color="#000" flood-opacity=".15"/></filter></defs><rect x="20" y="18" width="1632" height="904" rx="28" fill="#fff" stroke="#6f879f" stroke-width="4"/><text x="836" y="106" text-anchor="middle" font-family="Arial,Helvetica,sans-serif" font-size="66" font-weight="800" fill="#26323d">Extension Cord / 延長コード</text><path d="M66 158h698M908 158h698" stroke="#6f879f" stroke-width="4"/><g filter="url(#s)"><path d="M470 520c0-160 150-260 330-220 160 36 214 182 112 272-86 76-236 56-254-44-16-86 72-150 190-126 164 34 232 158 212 272" fill="none" stroke="#26323d" stroke-width="34" stroke-linecap="round"/><rect x="1024" y="630" width="230" height="116" rx="30" fill="#e8edf1" stroke="#26323d" stroke-width="18"/><circle cx="1094" cy="688" r="18" fill="#6f879f"/><circle cx="1182" cy="688" r="18" fill="#6f879f"/><rect x="372" y="458" width="172" height="96" rx="28" fill="#6f879f" stroke="#26323d" stroke-width="16"/><path d="M330 482h44M330 530h44" stroke="#26323d" stroke-width="18" stroke-linecap="round"/></g><rect x="960" y="742" width="470" height="86" rx="18" fill="#f7f7f4" stroke="#d4d7dd" stroke-width="3"/><text x="988" y="796" font-family="Arial,Helvetica,sans-serif" font-size="34" font-weight="700" fill="#26323d">Temporary power</text></svg>