<svg xmlns="http://www.w3.org/2000/svg" viewBox="0 0 1672 941"><rect x="20" y="18" width="1632" height="904" rx="28" fill="#fff" stroke="#6f879f" stroke-width="4"/><text x="836" y="106" text-anchor="middle" font-family="Arial" font-size="66" font-weight="800" fill="#26323d">Flexible Duct / フレキシブルダクト</text><path d="M66 158h698M908 158h698" stroke="#6f879f" stroke-width="4"/><path d="M360 520c190-180 360 180 540 0s360-180 520 0" fill="none" stroke="#e8edf1" stroke-width="120" stroke-linecap="round"/><path d="M360 520c190-180 360 180 540 0s360-180 520 0" fill="none" stroke="#26323d" stroke-width="18" stroke-linecap="round"/><path d="M470 444l70 146M606 476l70 146M742 544l70-146M878 544l70-146M1014 476l70 146M1150 444l70 146M1286 476l70 146" stroke="#6f879f" stroke-width="16" stroke-linecap="round"/><rect x="920" y="742" width="500" height="70" rx="18" fill="#f7f7f4" stroke="#d4d7dd" stroke-width="3"/><text x="948" y="787" font-family="Arial" font-size="30" font-weight="700" fill="#26323d">Connects air routes</text></svg>