<svg xmlns="http://www.w3.org/2000/svg" viewBox="0 0 1672 941"><rect x="20" y="18" width="1632" height="904" rx="28" fill="#fff" stroke="#6f879f" stroke-width="4"/><text x="836" y="106" text-anchor="middle" font-family="Arial" font-size="64" font-weight="800" fill="#26323d">Flexible Conduit / 可とう電線管</text><path d="M66 158h698M908 158h698" stroke="#6f879f" stroke-width="4"/><path d="M330 520c180-160 320 160 500 0s320-160 512 0" fill="none" stroke="#e8edf1" stroke-width="112" stroke-linecap="round"/><path d="M330 520c180-160 320 160 500 0s320-160 512 0" fill="none" stroke="#26323d" stroke-width="18" stroke-linecap="round"/><path d="M452 444l62 138M590 488l62 138M728 556l62-138M866 556l62-138M1004 488l62 138M1142 444l62 138" stroke="#6f879f" stroke-width="14" stroke-linecap="round"/><rect x="910" y="710" width="500" height="74" rx="18" fill="#f7f7f4" stroke="#d4d7dd" stroke-width="3"/><text x="938" y="758" font-family="Arial" font-size="32" font-weight="700" fill="#26323d">Flexible wiring route</text></svg>