<svg xmlns="http://www.w3.org/2000/svg" viewBox="0 0 1672 941"><rect x="20" y="18" width="1632" height="904" rx="28" fill="#fff" stroke="#6f879f" stroke-width="4"/><text x="836" y="106" text-anchor="middle" font-family="Arial" font-size="66" font-weight="800" fill="#26323d">Pull Bar / 床材引き寄せ金具</text><path d="M66 158h698M908 158h698" stroke="#6f879f" stroke-width="4"/><path d="M380 655h760" stroke="#26323d" stroke-width="46" stroke-linecap="round"/><path d="M390 655v-180c0-46 36-82 82-82h130" fill="none" stroke="#26323d" stroke-width="42" stroke-linecap="round" stroke-linejoin="round"/><path d="M1135 655v130c0 44 34 78 78 78h112" fill="none" stroke="#26323d" stroke-width="42" stroke-linecap="round" stroke-linejoin="round"/><rect x="280" y="540" width="315" height="72" rx="18" fill="#d8c7a3" stroke="#26323d" stroke-width="16"/><rect x="1088" y="690" width="330" height="76" rx="18" fill="#d8c7a3" stroke="#26323d" stroke-width="16"/><path d="M690 612h330" stroke="#6f879f" stroke-width="18" stroke-linecap="round"/><path d="M700 612l58-50M700 612l58 50M1010 612l-58-50M1010 612l-58 50" fill="none" stroke="#6f879f" stroke-width="15" stroke-linecap="round" stroke-linejoin="round"/><rect x="952" y="784" width="470" height="74" rx="18" fill="#f7f7f4" stroke="#d4d7dd" stroke-width="3"/><text x="982" y="832" font-family="Arial" font-size="32" font-weight="700" fill="#26323d">Pulls flooring tight near walls</text></svg>