<svg xmlns="http://www.w3.org/2000/svg" viewBox="0 0 1672 941" role="img" aria-labelledby="title desc"><title id="title">Floor Leveler / 床レベラー</title><desc id="desc">A technical illustration of self-leveling floor compound being spread on a slab.</desc><defs><linearGradient id="pour" x1="0" y1="0" x2="1" y2="1"><stop offset="0" stop-color="#d8e5eb"/><stop offset="1" stop-color="#8fa7b4"/></linearGradient><filter id="shadow" x="-20%" y="-20%" width="140%" height="160%"><feDropShadow dx="18" dy="24" stdDeviation="18" flood-color="#000" flood-opacity="0.14"/></filter></defs><rect x="20" y="18" width="1632" height="904" rx="28" fill="#fff" stroke="#6f879f" stroke-width="4"/><text x="836" y="106" text-anchor="middle" font-family="Arial, Helvetica, sans-serif" font-size="68" font-weight="800" fill="#26323d">Floor Leveler / 床レベラー</text><path d="M66 158h698M908 158h698" stroke="#6f879f" stroke-width="4"/><g filter="url(#shadow)"><polygon points="246,620 1128,406 1458,546 600,790" fill="#dad7ce" stroke="#20242a" stroke-width="4"/><path d="M406 612c184-82 458-154 726-152 106 2 202 16 270 42-224 30-504 94-764 172-88 26-166 50-232 72-60-22-114-52-160-90 40-12 92-28 160-44z" fill="url(#pour)" stroke="#26323d" stroke-width="4"/><path d="M462 676c242-76 510-132 784-160" stroke="#fff" stroke-width="12" stroke-linecap="round" opacity=".55"/><path d="M514 722c188-60 408-108 664-144" stroke="#fff" stroke-width="8" stroke-linecap="round" opacity=".45"/><path d="M836 330l-108 238" stroke="#26323d" stroke-width="22" stroke-linecap="round"/><rect x="676" y="552" width="280" height="42" rx="18" fill="#26323d" transform="rotate(-14 816 573)"/></g><rect x="1012" y="690" width="380" height="90" rx="18" fill="#f7f7f4" stroke="#d4d7dd" stroke-width="3"/><text x="1042" y="746" font-family="Arial, Helvetica, sans-serif" font-size="34" font-weight="700" fill="#26323d">Levels uneven floors</text></svg>