<svg xmlns="http://www.w3.org/2000/svg" viewBox="0 0 1672 941" role="img" aria-labelledby="title desc"><title id="title">Hammer Drill / 振動ドリル</title><desc id="desc">A technical illustration of a hammer drill used for masonry drilling.</desc><defs><filter id="s" x="-20%" y="-20%" width="140%" height="160%"><feDropShadow dx="18" dy="24" stdDeviation="18" flood-color="#000" flood-opacity=".15"/></filter></defs><rect x="20" y="18" width="1632" height="904" rx="28" fill="#fff" stroke="#6f879f" stroke-width="4"/><text x="836" y="106" text-anchor="middle" font-family="Arial,Helvetica,sans-serif" font-size="66" font-weight="800" fill="#26323d">Hammer Drill / 振動ドリル</text><path d="M66 158h698M908 158h698" stroke="#6f879f" stroke-width="4"/><g filter="url(#s)"><rect x="394" y="326" width="590" height="206" rx="54" fill="#e8edf1" stroke="#26323d" stroke-width="22"/><path d="M984 428h264" stroke="#26323d" stroke-width="54" stroke-linecap="round"/><path d="M1248 428h150" stroke="#6f879f" stroke-width="26" stroke-linecap="round"/><path d="M442 338l-86 96M452 526l-96-88" stroke="#26323d" stroke-width="34" stroke-linecap="round"/><path d="M612 528l-90 250" stroke="#26323d" stroke-width="60" stroke-linecap="round"/><rect x="490" y="746" width="230" height="74" rx="22" fill="#26323d"/><path d="M754 532l76 174" stroke="#26323d" stroke-width="44" stroke-linecap="round"/><path d="M1040 314l64-54M1108 326l92-48M1172 348l118-32" stroke="#ef5960" stroke-width="10" stroke-linecap="round"/></g><rect x="1000" y="704" width="430" height="86" rx="18" fill="#f7f7f4" stroke="#d4d7dd" stroke-width="3"/><text x="1028" y="758" font-family="Arial,Helvetica,sans-serif" font-size="34" font-weight="700" fill="#26323d">Masonry drilling</text></svg>