<svg xmlns="http://www.w3.org/2000/svg" viewBox="0 0 1672 941" role="img" aria-labelledby="title desc"><title id="title">Hand Saw / 手のこ</title><desc id="desc">Technical glossary illustration of a hand saw for manual wood cutting.</desc><defs><filter id="s" x="-20%" y="-20%" width="140%" height="160%"><feDropShadow dx="18" dy="24" stdDeviation="18" flood-color="#000" flood-opacity=".15"/></filter></defs><rect x="20" y="18" width="1632" height="904" rx="28" fill="#fff" stroke="#6f879f" stroke-width="4"/><text x="836" y="106" text-anchor="middle" font-family="Arial,Helvetica,sans-serif" font-size="66" font-weight="800" fill="#26323d">Hand Saw / 手のこ</text><path d="M66 158h698M908 158h698" stroke="#6f879f" stroke-width="4"/><g filter="url(#s)"><path d="M382 548l746-250 168 92-742 294z" fill="#e8edf1" stroke="#26323d" stroke-width="18" stroke-linejoin="round"/><path d="M552 684l-22 64 60-34 14 66 42-54 42 54 12-70 60 36-22-72" fill="#e8edf1" stroke="#26323d" stroke-width="10" stroke-linejoin="round"/><path d="M1118 300l210-96c74-34 158 14 168 96 8 66-34 126-98 144l-178 50z" fill="#d8c7a3" stroke="#26323d" stroke-width="20"/><circle cx="1378" cy="312" r="42" fill="#fff" stroke="#26323d" stroke-width="14"/></g><rect x="314" y="718" width="420" height="86" rx="18" fill="#f7f7f4" stroke="#d4d7dd" stroke-width="3"/><text x="342" y="772" font-family="Arial,Helvetica,sans-serif" font-size="34" font-weight="700" fill="#26323d">Manual cutting</text></svg>