<svg xmlns="http://www.w3.org/2000/svg" viewBox="0 0 1672 941"><rect x="20" y="18" width="1632" height="904" rx="28" fill="#fff" stroke="#6f879f" stroke-width="4"/><text x="836" y="106" text-anchor="middle" font-family="Arial" font-size="66" font-weight="800" fill="#26323d">Insulation Batt / 断熱材</text><path d="M66 158h698M908 158h698" stroke="#6f879f" stroke-width="4"/><rect x="470" y="260" width="740" height="500" rx="44" fill="#e8edf1" stroke="#26323d" stroke-width="24"/><path d="M540 330c80 60 160 60 240 0s160-60 240 0 120 60 170 30M540 470c80 60 160 60 240 0s160-60 240 0 120 60 170 30M540 610c80 60 160 60 240 0s160-60 240 0 120 60 170 30" fill="none" stroke="#6f879f" stroke-width="22" stroke-linecap="round"/><rect x="940" y="780" width="430" height="74" rx="18" fill="#f7f7f4" stroke="#d4d7dd" stroke-width="3"/><text x="968" y="828" font-family="Arial" font-size="32" font-weight="700" fill="#26323d">Thermal insulation</text></svg>