<svg xmlns="http://www.w3.org/2000/svg" viewBox="0 0 1672 941"><rect x="20" y="18" width="1632" height="904" rx="28" fill="#fff" stroke="#6f879f" stroke-width="4"/><text x="836" y="106" text-anchor="middle" font-family="Arial" font-size="66" font-weight="800" fill="#26323d">Level Staff / 標尺</text><path d="M66 158h698M908 158h698" stroke="#6f879f" stroke-width="4"/><rect x="760" y="210" width="160" height="610" rx="22" fill="#e8edf1" stroke="#26323d" stroke-width="22"/><path d="M760 300h160M760 390h160M760 480h160M760 570h160M760 660h160M760 750h160" stroke="#6f879f" stroke-width="16"/><path d="M790 255h70M790 345h70M790 435h70M790 525h70M790 615h70M790 705h70" stroke="#26323d" stroke-width="12" stroke-linecap="round"/><rect x="940" y="760" width="390" height="74" rx="18" fill="#f7f7f4" stroke="#d4d7dd" stroke-width="3"/><text x="968" y="808" font-family="Arial" font-size="32" font-weight="700" fill="#26323d">Elevation reading rod</text></svg>