<svg xmlns="http://www.w3.org/2000/svg" viewBox="0 0 1672 941" role="img" aria-labelledby="title desc"><title id="title">Platform Cart / 台車</title><desc id="desc">Technical glossary illustration of a platform cart used for moving materials.</desc><defs><filter id="s" x="-20%" y="-20%" width="140%" height="160%"><feDropShadow dx="18" dy="24" stdDeviation="18" flood-color="#000" flood-opacity=".15"/></filter></defs><rect x="20" y="18" width="1632" height="904" rx="28" fill="#fff" stroke="#6f879f" stroke-width="4"/><text x="836" y="106" text-anchor="middle" font-family="Arial,Helvetica,sans-serif" font-size="66" font-weight="800" fill="#26323d">Platform Cart / 台車</text><path d="M66 158h698M908 158h698" stroke="#6f879f" stroke-width="4"/><g filter="url(#s)"><rect x="390" y="516" width="900" height="110" rx="24" fill="#d8c7a3" stroke="#26323d" stroke-width="18"/><path d="M1130 516V310c0-54 42-96 96-96h84" fill="none" stroke="#26323d" stroke-width="34" stroke-linecap="round"/><circle cx="560" cy="704" r="70" fill="#26323d"/><circle cx="560" cy="704" r="28" fill="#6f879f"/><circle cx="1120" cy="704" r="70" fill="#26323d"/><circle cx="1120" cy="704" r="28" fill="#6f879f"/><rect x="540" y="382" width="180" height="120" rx="14" fill="#e8edf1" stroke="#26323d" stroke-width="8"/><rect x="742" y="342" width="210" height="160" rx="14" fill="#e8edf1" stroke="#26323d" stroke-width="8"/></g><rect x="954" y="768" width="430" height="86" rx="18" fill="#f7f7f4" stroke="#d4d7dd" stroke-width="3"/><text x="982" y="822" font-family="Arial,Helvetica,sans-serif" font-size="34" font-weight="700" fill="#26323d">Moves materials</text></svg>