<svg xmlns="http://www.w3.org/2000/svg" viewBox="0 0 1672 941" role="img" aria-labelledby="title desc"><title id="title">PPE Eyewear / 保護メガネ</title><desc id="desc">A simple construction glossary illustration of protective eyewear.</desc><rect x="20" y="18" width="1632" height="904" rx="28" fill="#fff" stroke="#6f879f" stroke-width="4"/><text x="836" y="106" text-anchor="middle" font-family="Arial, Helvetica, sans-serif" font-size="66" font-weight="800" fill="#26323d">PPE Eyewear / 保護メガネ</text><path d="M66 158h698M908 158h698" stroke="#6f879f" stroke-width="4"/><g><path d="M356 456c92-92 230-124 382-70 58 22 136 22 196 0 154-54 290-22 382 70 28 28 38 72 22 110-44 104-172 156-304 114-86-28-144-92-178-168-12-26-44-26-56 0-34 76-92 140-178 168-132 42-260-10-304-114-16-38-6-82 22-110z" fill="#26323d"/><path d="M440 468c62-48 156-64 262-26 62 22 92 92 60 156-28 58-94 96-166 94-88-2-168-48-196-124-14-38 4-76 40-100z" fill="#dff0f7"/><path d="M1232 468c-62-48-156-64-262-26-62 22-92 92-60 156 28 58 94 96 166 94 88-2 168-48 196-124 14-38-4-76-40-100z" fill="#dff0f7"/></g><rect x="1030" y="704" width="400" height="86" rx="18" fill="#f7f7f4" stroke="#d4d7dd" stroke-width="3"/><text x="1058" y="758" font-family="Arial, Helvetica, sans-serif" font-size="34" font-weight="700" fill="#26323d">Eye protection</text></svg>