<svg xmlns="http://www.w3.org/2000/svg" viewBox="0 0 1672 941" role="img" aria-labelledby="title desc"><title id="title">Rotary Hammer / ハンマードリル</title><desc id="desc">Technical glossary illustration of a rotary hammer for concrete drilling.</desc><defs><filter id="s" x="-20%" y="-20%" width="140%" height="160%"><feDropShadow dx="18" dy="24" stdDeviation="18" flood-color="#000" flood-opacity=".15"/></filter></defs><rect x="20" y="18" width="1632" height="904" rx="28" fill="#fff" stroke="#6f879f" stroke-width="4"/><text x="836" y="106" text-anchor="middle" font-family="Arial,Helvetica,sans-serif" font-size="64" font-weight="800" fill="#26323d">Rotary Hammer / ハンマードリル</text><path d="M66 158h698M908 158h698" stroke="#6f879f" stroke-width="4"/><g filter="url(#s)"><rect x="380" y="330" width="660" height="218" rx="62" fill="#e8edf1" stroke="#26323d" stroke-width="22"/><path d="M1040 438h300" stroke="#26323d" stroke-width="62" stroke-linecap="round"/><path d="M1340 438h120" stroke="#6f879f" stroke-width="30" stroke-linecap="round"/><path d="M500 334l-120 112M510 546l-132-100" stroke="#26323d" stroke-width="42" stroke-linecap="round"/><path d="M642 548l-92 244" stroke="#26323d" stroke-width="64" stroke-linecap="round"/><rect x="520" y="760" width="250" height="76" rx="24" fill="#26323d"/><path d="M810 548l74 176" stroke="#26323d" stroke-width="48" stroke-linecap="round"/><rect x="560" y="388" width="210" height="74" rx="28" fill="#6f879f"/></g><rect x="1010" y="704" width="440" height="86" rx="18" fill="#f7f7f4" stroke="#d4d7dd" stroke-width="3"/><text x="1038" y="758" font-family="Arial,Helvetica,sans-serif" font-size="34" font-weight="700" fill="#26323d">Concrete drilling</text></svg>