<svg xmlns="http://www.w3.org/2000/svg" viewBox="0 0 1672 941"><rect x="20" y="18" width="1632" height="904" rx="28" fill="#fff" stroke="#6f879f" stroke-width="4"/><text x="836" y="106" text-anchor="middle" font-family="Arial" font-size="66" font-weight="800" fill="#26323d">Lanyard / ランヤード</text><path d="M66 158h698M908 158h698" stroke="#6f879f" stroke-width="4"/><path d="M520 510c150-220 480-220 640 0" fill="none" stroke="#26323d" stroke-width="46" stroke-linecap="round"/><path d="M520 510l-120 120M1160 510l120 120" stroke="#6f879f" stroke-width="36" stroke-linecap="round"/><path d="M380 640c-70 20-100 80-60 130 50 60 150 20 150-60" fill="none" stroke="#26323d" stroke-width="28" stroke-linecap="round"/><path d="M1290 640c70 20 100 80 60 130-50 60-150 20-150-60" fill="none" stroke="#26323d" stroke-width="28" stroke-linecap="round"/><rect x="940" y="740" width="390" height="74" rx="18" fill="#f7f7f4" stroke="#d4d7dd" stroke-width="3"/><text x="968" y="788" font-family="Arial" font-size="32" font-weight="700" fill="#26323d">Connector strap</text></svg>