<svg xmlns="http://www.w3.org/2000/svg" viewBox="0 0 1672 941" role="img" aria-labelledby="title desc"><title id="title">Scaffold / 足場</title><desc id="desc">A technical illustration of scaffold frames and working platforms.</desc><defs><filter id="s" x="-20%" y="-20%" width="140%" height="160%"><feDropShadow dx="18" dy="24" stdDeviation="18" flood-color="#000" flood-opacity=".15"/></filter></defs><rect x="20" y="18" width="1632" height="904" rx="28" fill="#fff" stroke="#6f879f" stroke-width="4"/><text x="836" y="106" text-anchor="middle" font-family="Arial,Helvetica,sans-serif" font-size="66" font-weight="800" fill="#26323d">Scaffold / 足場</text><path d="M66 158h698M908 158h698" stroke="#6f879f" stroke-width="4"/><g filter="url(#s)"><path d="M420 260v520M700 260v520M980 260v520M1260 260v520" stroke="#26323d" stroke-width="24" stroke-linecap="round"/><path d="M360 336h960M360 520h960M360 704h960" stroke="#6f879f" stroke-width="24" stroke-linecap="round"/><path d="M420 260l280 260M700 260L420 520M700 520l280 260M980 520L700 780M980 260l280 260M1260 260L980 520" stroke="#aeb8c2" stroke-width="16" stroke-linecap="round"/><rect x="348" y="502" width="984" height="36" rx="10" fill="#d8c7a3" stroke="#26323d" stroke-width="4"/><rect x="348" y="686" width="984" height="36" rx="10" fill="#d8c7a3" stroke="#26323d" stroke-width="4"/></g><rect x="1040" y="762" width="390" height="86" rx="18" fill="#f7f7f4" stroke="#d4d7dd" stroke-width="3"/><text x="1068" y="816" font-family="Arial,Helvetica,sans-serif" font-size="34" font-weight="700" fill="#26323d">Work platform</text></svg>