<svg xmlns="http://www.w3.org/2000/svg" viewBox="0 0 1672 941" role="img" aria-labelledby="title desc"><title id="title">Spirit Level / 水準器</title><desc id="desc">A technical illustration of a spirit level used to check level and plumb.</desc><defs><filter id="s" x="-20%" y="-20%" width="140%" height="160%"><feDropShadow dx="18" dy="24" stdDeviation="18" flood-color="#000" flood-opacity=".15"/></filter></defs><rect x="20" y="18" width="1632" height="904" rx="28" fill="#fff" stroke="#6f879f" stroke-width="4"/><text x="836" y="106" text-anchor="middle" font-family="Arial,Helvetica,sans-serif" font-size="66" font-weight="800" fill="#26323d">Spirit Level / 水準器</text><path d="M66 158h698M908 158h698" stroke="#6f879f" stroke-width="4"/><g filter="url(#s)"><rect x="332" y="398" width="1008" height="170" rx="42" fill="#26323d"/><rect x="404" y="440" width="270" height="86" rx="38" fill="#dff0f7" stroke="#fff" stroke-width="10"/><rect x="704" y="440" width="270" height="86" rx="38" fill="#dff0f7" stroke="#fff" stroke-width="10"/><rect x="1004" y="440" width="270" height="86" rx="38" fill="#dff0f7" stroke="#fff" stroke-width="10"/><circle cx="540" cy="483" r="24" fill="#6f879f"/><circle cx="840" cy="483" r="24" fill="#6f879f"/><circle cx="1140" cy="483" r="24" fill="#6f879f"/><path d="M456 483h168M756 483h168M1056 483h168" stroke="#6f879f" stroke-width="6" opacity=".6"/></g><rect x="1004" y="666" width="390" height="86" rx="18" fill="#f7f7f4" stroke="#d4d7dd" stroke-width="3"/><text x="1032" y="720" font-family="Arial,Helvetica,sans-serif" font-size="34" font-weight="700" fill="#26323d">Checks level</text></svg>