<svg xmlns="http://www.w3.org/2000/svg" viewBox="0 0 1672 941" role="img" aria-labelledby="title desc"><title id="title">Temporary Fence / 仮囲い</title><desc id="desc">Technical glossary illustration of a temporary fence used to separate a work area.</desc><defs><filter id="s" x="-20%" y="-20%" width="140%" height="160%"><feDropShadow dx="18" dy="24" stdDeviation="18" flood-color="#000" flood-opacity=".15"/></filter></defs><rect x="20" y="18" width="1632" height="904" rx="28" fill="#fff" stroke="#6f879f" stroke-width="4"/><text x="836" y="106" text-anchor="middle" font-family="Arial,Helvetica,sans-serif" font-size="66" font-weight="800" fill="#26323d">Temporary Fence / 仮囲い</text><path d="M66 158h698M908 158h698" stroke="#6f879f" stroke-width="4"/><g filter="url(#s)"><path d="M330 300v470M1340 300v470" stroke="#26323d" stroke-width="30" stroke-linecap="round"/><path d="M330 330h1010M330 520h1010M330 710h1010" stroke="#6f879f" stroke-width="26" stroke-linecap="round"/><path d="M468 330v380M606 330v380M744 330v380M882 330v380M1020 330v380M1158 330v380M1296 330v380" stroke="#26323d" stroke-width="16" stroke-linecap="round"/><rect x="292" y="750" width="150" height="46" rx="14" fill="#d8c7a3" stroke="#26323d" stroke-width="8"/><rect x="1228" y="750" width="150" height="46" rx="14" fill="#d8c7a3" stroke="#26323d" stroke-width="8"/></g><rect x="938" y="772" width="470" height="86" rx="18" fill="#f7f7f4" stroke="#d4d7dd" stroke-width="3"/><text x="966" y="826" font-family="Arial,Helvetica,sans-serif" font-size="34" font-weight="700" fill="#26323d">Separates work area</text></svg>