<svg xmlns="http://www.w3.org/2000/svg" viewBox="0 0 1672 941"><rect x="20" y="18" width="1632" height="904" rx="28" fill="#fff" stroke="#6f879f" stroke-width="4"/><text x="836" y="106" text-anchor="middle" font-family="Arial" font-size="66" font-weight="800" fill="#26323d">Terminal Block / 端子台</text><path d="M66 158h698M908 158h698" stroke="#6f879f" stroke-width="4"/><rect x="390" y="330" width="892" height="360" rx="36" fill="#e8edf1" stroke="#26323d" stroke-width="22"/><path d="M530 330v360M670 330v360M810 330v360M950 330v360M1090 330v360" stroke="#6f879f" stroke-width="14"/><circle cx="460" cy="450" r="30" fill="#26323d"/><circle cx="600" cy="450" r="30" fill="#26323d"/><circle cx="740" cy="450" r="30" fill="#26323d"/><circle cx="880" cy="450" r="30" fill="#26323d"/><circle cx="1020" cy="450" r="30" fill="#26323d"/><circle cx="1160" cy="450" r="30" fill="#26323d"/><path d="M460 560h700" stroke="#fff" stroke-width="18" stroke-linecap="round"/><rect x="980" y="720" width="400" height="74" rx="18" fill="#f7f7f4" stroke="#d4d7dd" stroke-width="3"/><text x="1008" y="768" font-family="Arial" font-size="32" font-weight="700" fill="#26323d">Connects circuits</text></svg>