<svg xmlns="http://www.w3.org/2000/svg" viewBox="0 0 1672 941"><rect x="20" y="18" width="1632" height="904" rx="28" fill="#fff" stroke="#6f879f" stroke-width="4"/><text x="836" y="106" text-anchor="middle" font-family="Arial" font-size="66" font-weight="800" fill="#26323d">Work Gloves / 作業手袋</text><path d="M66 158h698M908 158h698" stroke="#6f879f" stroke-width="4"/><path d="M630 650V360c0-50 70-50 70 0v150M700 520V300c0-50 70-50 70 0v220M770 520V280c0-50 70-50 70 0v240M840 520V320c0-50 70-50 70 0v230M910 560V390c0-50 70-50 70 0v270c0 110-70 170-180 170h-40c-90 0-130-70-130-180z" fill="#e8edf1" stroke="#26323d" stroke-width="20" stroke-linejoin="round"/><path d="M650 670h300" stroke="#6f879f" stroke-width="24" stroke-linecap="round"/><rect x="940" y="770" width="430" height="74" rx="18" fill="#f7f7f4" stroke="#d4d7dd" stroke-width="3"/><text x="968" y="818" font-family="Arial" font-size="32" font-weight="700" fill="#26323d">Hand gear</text></svg>